<svg xmlns="http://www.w3.org/2000/svg" width="41" height="34" viewBox="0 0 41 34" fill="none"><g clip-path="url(#clip0_39_162)"><path d="M40.7241 25.3592C40.7241 28.324 38.5921 30.8256 35.6552 31.3072L21.4098 33.6428C21.3371 33.6546 21.2636 33.6639 21.1892 33.6705C21.6142 33.4822 22.0062 33.2369 22.3597 32.9381C23.4635 32.0047 24.0967 30.6421 24.0967 29.2001V4.79975C24.0967 3.32858 23.4425 1.94839 22.3018 1.01366C21.9289 0.708091 21.5191 0.461791 21.0785 0.278072C21.2222 0.285573 21.364 0.302972 21.5038 0.330275L35.8375 3.13245C38.6691 3.68606 40.7241 6.17374 40.7241 9.04759V25.3592ZM19.9445 18.7386L19.8792 21.9328C19.8791 21.9546 19.8611 21.9721 19.8392 21.9721H19.8379C19.3292 21.9612 18.9238 21.9424 18.6214 21.9158C18.2318 21.8812 17.8415 21.8559 17.4507 21.8398H17.4495C17.4326 21.8398 17.4187 21.8537 17.4187 21.8705L17.3865 25.3422C17.3865 25.3625 17.3762 25.3712 17.3557 25.3681L17.0444 25.3224L13.7596 24.9861C13.7475 24.985 13.7382 24.9747 13.7382 24.9627V24.9619L13.7695 21.8409L13.7696 21.8404C13.7696 21.821 13.7541 21.8051 13.7347 21.8043C12.5988 21.7672 11.5104 21.7258 10.4695 21.6802C10.0887 21.6637 9.69921 21.6519 9.30097 21.6447C7.64383 21.6157 5.93224 21.5952 4.16619 21.5832C4.12816 21.5828 4.10915 21.5638 4.10915 21.5257C4.11109 20.504 4.10853 19.5118 4.10148 18.5488C4.09974 18.3654 4.08063 18.1163 4.20007 17.9864C4.61897 17.5313 5.03665 17.075 5.45315 16.6174C7.84887 13.9878 10.235 11.3494 12.6114 8.70221C12.6732 8.63314 12.6982 8.55599 12.809 8.53624C13.4813 8.52421 14.1517 8.49614 14.8203 8.45201C15.7162 8.39216 16.5566 8.34343 17.425 8.29643H17.4256C17.4334 8.29643 17.4397 8.30276 17.4397 8.31041L17.4489 17.255L17.4408 18.6702C17.4408 18.6982 17.4548 18.712 17.4826 18.712L19.905 18.6993H19.9058C19.9273 18.6993 19.9445 18.7166 19.9445 18.7381V18.7386ZM35.8776 2.92956L21.5439 0.127378C21.2102 0.062053 20.8638 0.0495088 20.5143 0.0903188L20.2494 0.121177C19.6 -0.0270653 18.9192 -0.041484 18.2461 0.0900305L5.31069 2.61894C2.23339 3.22043 0 5.92411 0 9.04759V25.3592C0 28.5816 2.31693 31.3001 5.50918 31.8236L18.3914 33.9361C18.6533 33.9788 18.916 34 19.1772 34C19.5713 34 19.9609 33.9483 20.3393 33.8531L20.6145 33.8766C20.7152 33.8853 20.8152 33.8895 20.9145 33.8893C21.0944 33.8893 21.2714 33.8753 21.4434 33.8472L35.6887 31.5113C38.7268 31.0132 40.9319 28.4258 40.9319 25.3592V9.04759C40.9319 6.07495 38.8062 3.50191 35.8776 2.92956Z" fill="white"></path><path d="M37.211 8.79405C36.5741 8.74455 35.9398 8.70199 35.3081 8.66642C35.2226 8.66143 35.1525 8.68908 35.0977 8.74935C33.1639 10.8633 31.2779 13.0971 29.4395 15.4508C29.4132 15.4845 29.3941 15.4808 29.3824 15.4397C29.3796 15.4312 29.3785 15.4079 29.3789 15.3701C29.388 12.8596 29.3651 10.3336 29.3108 7.79212C29.3099 7.76271 29.295 7.74665 29.2659 7.74395L25.6442 7.3771C25.6193 7.3744 25.6071 7.3856 25.6074 7.4107C25.6507 10.149 25.7391 12.8472 25.7432 15.6035C25.7488 19.2325 25.7484 22.7425 25.7421 26.1334V26.1336C25.7421 26.146 25.7521 26.1563 25.7647 26.1563L25.7677 26.156C26.4443 26.0669 27.1389 25.9982 27.8513 25.9494C28.2908 25.9193 28.7578 25.8287 29.2134 25.7973C29.2382 25.7958 29.2577 25.7751 29.2577 25.7504V25.7496C29.2449 23.3595 29.2388 20.7485 29.2392 17.9169C29.2392 17.9006 29.2414 17.8845 29.246 17.8685C29.2494 17.8566 29.2603 17.8482 29.2729 17.8482C29.2835 17.8482 29.2932 17.8541 29.2978 17.8634C29.3295 17.9245 29.3633 17.9791 29.3995 18.0272C30.3944 19.3519 31.4116 20.664 32.4505 21.9634C32.7448 22.331 33.0297 22.7107 33.2997 23.0926C33.8204 23.829 34.3571 24.5277 34.9098 25.1883C34.9222 25.2032 34.9413 25.211 34.9612 25.2091C35.3231 25.1714 35.6723 25.1012 36.0385 25.0709C36.3695 25.043 36.7014 25.0062 37.0338 24.9606C37.7123 24.8673 38.3959 24.8122 39.0679 24.7041C39.0905 24.7006 39.094 24.6905 39.079 24.6733C38.0054 23.494 37.0229 22.3287 36.1311 21.1776C35.1601 19.9236 34.1093 18.5451 32.9785 17.042C32.9069 16.9474 32.7828 16.8771 32.7652 16.7528C32.7622 16.7331 32.767 16.7157 32.7796 16.7006C34.8298 14.2494 36.8514 11.7756 38.8447 9.27929C38.9204 9.1847 39.0148 9.09948 39.0731 8.99463C39.0745 8.99195 39.0757 8.98907 39.0766 8.98599C39.0827 8.96479 39.0706 8.94273 39.0495 8.93667C39.0465 8.9358 39.0434 8.93532 39.0398 8.93523C38.4922 8.91695 37.9603 8.87765 37.4447 8.81726C37.3644 8.80765 37.2865 8.79991 37.211 8.79405Z" fill="white"></path><path d="M13.759 11.9177C13.7564 11.9177 13.7539 11.9183 13.7515 11.9195C13.6691 11.959 13.6406 12.0304 13.5859 12.0965C13.0676 12.7208 12.7266 13.126 12.563 13.3122C11.0073 15.0831 9.38681 16.8806 7.70158 18.7045C7.65496 18.7548 7.66606 18.7797 7.73487 18.7794L13.7723 18.7585C13.8031 18.7585 13.8278 18.7339 13.8278 18.7034C13.819 16.4429 13.7968 14.1823 13.7758 11.934C13.7757 11.9249 13.7682 11.9177 13.759 11.9177Z" fill="white"></path></g><defs><clipPath id="clip0_39_162"><rect width="41" height="34" fill="white"></rect></clipPath></defs></svg>