<svg xmlns="http://www.w3.org/2000/svg" width="162" height="162" viewBox="0 0 162 162" fill="none"><foreignObject x="-5.6" y="-5.6" width="173.2" height="173.2"></foreignObject><circle data-figma-bg-blur-radius="5.6" cx="81" cy="81" r="81" fill="white" fill-opacity="0.15"></circle><path d="M92.7354 17.4119C94.4303 17.744 95.9365 16.7054 96.2755 14.8215C96.6137 12.9384 95.5709 11.3998 93.876 11.0676C92.1804 10.7355 90.6742 11.7742 90.3359 13.6573C89.997 15.5412 91.0405 17.0798 92.7354 17.4119ZM97.8921 21.3695C97.1261 22.0402 96.1545 22.2899 95.1103 22.0848C93.6999 21.8081 92.8067 21.076 91.6325 19.1747C89.0898 18.3243 87.6283 15.912 88.1119 13.2216C88.6417 10.2757 91.2299 8.52613 94.2269 9.11298C97.2106 9.69836 99.0313 12.2983 98.4995 15.258C98.0815 17.5806 96.3817 19.1528 94.2388 19.4367C94.6078 20.0367 94.9817 20.3002 95.4563 20.3936C96.0399 20.5082 96.5984 20.368 97.1351 19.96L97.8921 21.3695Z" fill="#5BBA51"></path><path d="M101.184 16.4526L103.14 11.1331L105.237 11.9804L103.312 17.2182C102.648 19.0226 103.125 20.0723 104.394 20.584C105.676 21.1015 106.688 20.6532 107.352 18.8488L109.278 13.611L111.35 14.4473L109.395 19.7668C108.366 22.562 106.269 23.4918 103.692 22.4516C101.115 21.4114 100.156 19.2478 101.184 16.4526Z" fill="#5BBA51"></path><path d="M116.611 24.735L117.208 20.4998L113.879 23.0597L116.611 24.735ZM116.337 26.6793L112.338 24.2261L110.476 25.6601L108.434 24.407L117.401 17.8882L119.37 19.0957L118.093 30.3317L116.001 29.0487L116.337 26.6793Z" fill="#5BBA51"></path><path d="M125.21 25.5692L122.73 23.5895L123.918 22.1546L130.67 27.5454L129.482 28.9803L127.003 27.0013L121.892 33.1759L120.099 31.7445L125.21 25.5692Z" fill="#5BBA51"></path><path d="M134.345 33.3593L133.082 31.9417L130.519 34.3293L131.782 35.7469C132.73 36.8104 133.692 36.8972 134.49 36.1539C135.299 35.4002 135.293 34.4228 134.345 33.3593ZM129.834 40.5507L130.591 37.1924L130.514 37.1063L129.165 35.5916L127.117 37.5L125.566 35.7601L132.918 28.9094L135.818 32.164C137.608 34.1726 137.708 36.3783 136.06 37.9151C134.956 38.9433 133.641 39.1273 132.36 38.5311L131.5 42.4194L129.834 40.5507Z" fill="#5BBA51"></path><path d="M140.535 47.2347C142.131 46.2728 142.509 44.5393 141.56 43.1101C140.611 41.6808 138.805 41.2636 137.209 42.2262C135.613 43.1882 135.234 44.9216 136.184 46.3509C137.133 47.7808 138.938 48.1967 140.535 47.2347ZM135.964 40.351C138.46 38.8457 141.539 39.5843 143.216 42.1111C144.887 44.627 144.288 47.5979 141.779 49.11C139.271 50.6221 136.198 49.865 134.527 47.3491C132.849 44.8223 133.468 41.8556 135.964 40.351Z" fill="#5BBA51"></path><path d="M143.255 55.4773L141.35 54.7746L138.88 55.7191L137.96 53.6205L147.73 49.8854L148.649 51.9841L144.086 53.7289L150.42 56.0251L151.448 58.372L145.437 56.2562L141.776 62.3289L140.697 59.865L143.255 55.4773Z" fill="#5BBA51"></path><path d="M153.636 69.4397L143.21 67.4531L142.7 65.148L151.197 58.4184L151.755 60.9394L145.677 65.7072L153.122 67.1203L153.636 69.4397Z" fill="#523D8B"></path><path d="M146.529 79.6112L144.739 79.7498L144.158 72.3197L153.797 71.5726L154.365 78.8252L152.574 78.9637L152.18 73.9189L150.087 74.0811L150.435 78.5362L148.7 78.6706L148.352 74.2155L146.121 74.3882L146.529 79.6112Z" fill="#523D8B"></path><path d="M145.583 81.1721L147.249 82.0062C146.588 82.7491 146.083 83.8859 146.005 84.9966C145.915 86.2662 146.329 86.8098 146.935 86.8474C148.779 86.9628 147.893 81.5022 151.554 81.7311C153.229 81.8351 154.533 83.192 154.347 85.8227C154.264 86.9863 153.885 88.158 153.246 88.9814L151.561 88.2124C152.143 87.3849 152.459 86.5152 152.517 85.6958C152.607 84.4261 152.135 83.9054 151.516 83.8665C149.699 83.753 150.571 89.213 146.953 88.9868C145.305 88.8841 143.988 87.5138 144.175 84.8691C144.279 83.4014 144.849 81.9499 145.583 81.1721Z" fill="#523D8B"></path><path d="M151.302 94.4809L151.908 91.482L153.636 91.8469L151.986 100.015L150.258 99.6491L150.864 96.6502L143.429 95.0784L143.867 92.9098L151.302 94.4809Z" fill="#523D8B"></path><path d="M151.449 101.897L150.744 104.281L141.242 100.978L141.946 98.5928L151.449 101.897Z" fill="#523D8B"></path><path d="M147.258 108.674L144.963 107.638L143.928 109.823C143.419 110.896 143.532 111.655 144.296 112.001C145.061 112.346 145.714 111.932 146.222 110.859L147.258 108.674ZM140.067 110.667C140.887 111.037 141.566 110.602 142.106 109.462L143.322 106.897L140.917 105.81L139.7 108.375C139.16 109.516 139.232 110.29 140.067 110.667ZM138.782 112.772C137.099 112.012 136.743 110.27 137.926 107.772L140.256 102.859L149.99 107.255L147.789 111.897C146.664 114.273 145.07 115.035 143.554 114.351C142.581 113.911 142.061 113.084 142.011 112.121C141.161 113.023 140.005 113.325 138.782 112.772Z" fill="#523D8B"></path><path d="M139.512 114.891L144.157 118.106L142.828 120.024L138.253 116.859C136.677 115.768 135.549 116.004 134.745 117.165C133.932 118.336 134.116 119.462 135.692 120.553L140.267 123.718L138.954 125.613L134.308 122.398C131.867 120.709 131.484 118.377 133.118 116.021C134.75 113.664 137.07 113.202 139.512 114.891Z" fill="#523D8B"></path><path d="M136.502 128.346L134.896 129.879L128.966 124.776L125.486 128.097L124.108 126.911L129.195 122.058L136.502 128.346Z" fill="#523D8B"></path><path d="M120.854 134.321L124.629 136.326L123.486 132.429L120.854 134.321ZM119.122 133.402L122.973 130.631L122.331 128.45L124.298 127.035L127.025 137.404L125.129 138.767L114.995 133.728L117.01 132.278L119.122 133.402Z" fill="#523D8B"></path><path d="M114.695 143.407L116.386 142.503L114.708 139.389L113.016 140.294C111.748 140.972 111.423 141.901 111.946 142.871C112.476 143.854 113.426 144.086 114.695 143.407ZM108.84 137.201L111.911 138.764L112.014 138.71L113.82 137.744L112.479 135.255L114.554 134.146L119.369 143.077L115.488 145.153C113.091 146.434 110.926 145.998 109.845 143.995C109.123 142.655 109.272 141.31 110.17 140.188L106.611 138.393L108.84 137.201Z" fill="#523D8B"></path><path d="M98.4718 142.873L97.8618 141.201L105.147 138.767L108.433 147.768L101.323 150.144L100.712 148.473L105.659 146.82L104.945 144.865L100.577 146.325L99.9853 144.704L104.354 143.245L103.594 141.162L98.4718 142.873Z" fill="#523D8B"></path><path d="M96.8305 142.831L96.3747 144.655C95.4034 144.219 94.0494 144.039 92.8361 144.26C91.45 144.514 90.9756 145.057 91.0947 145.648C91.4575 147.451 97.0852 145.138 97.8062 148.715C98.1361 150.353 97.0241 151.968 94.1499 152.494C92.8793 152.726 91.5215 152.674 90.4691 152.282L90.8505 150.458C91.8917 150.795 92.9091 150.866 93.8043 150.702C95.1904 150.449 95.6254 149.856 95.5032 149.251C95.1457 147.476 89.515 149.775 88.803 146.239C88.479 144.629 89.6022 142.997 92.4905 142.469C94.0933 142.176 95.8026 142.335 96.8305 142.831Z" fill="#523D8B"></path><path d="M83.6454 147.961L79.3013 148.011L79.271 146.638L83.6151 146.589L83.6454 147.961Z" fill="#5BBA51"></path><path d="M72.186 144.8C70.475 144.572 69.031 145.717 68.8004 147.645C68.5704 149.572 69.6999 151.062 71.4109 151.291C73.1219 151.52 74.5659 150.374 74.7965 148.447C75.0265 146.52 73.897 145.029 72.186 144.8ZM66.8119 141.123C67.5388 140.395 68.4942 140.082 69.5482 140.222C70.972 140.413 71.905 141.097 73.1862 142.947C75.7729 143.646 77.37 145.994 77.0415 148.747C76.6815 151.761 74.1975 153.695 71.1718 153.291C68.1601 152.887 66.194 150.372 66.5554 147.344C66.8399 144.968 68.4467 143.27 70.5701 142.847C70.1668 142.263 69.7782 142.02 69.2994 141.956C68.7109 141.876 68.1608 142.053 67.6485 142.5L66.8119 141.123Z" fill="#5BBA51"></path><path d="M64.0264 146.029L62.3442 151.211L60.1488 150.532L61.8058 145.43C62.3759 143.673 61.8259 142.703 60.4979 142.293C59.1569 141.878 58.1485 142.367 57.5777 144.125L55.9214 149.227L53.7534 148.557L55.4356 143.376C56.3188 140.653 58.4069 139.64 61.104 140.473C63.8003 141.305 64.9103 143.306 64.0264 146.029Z" fill="#5BBA51"></path><path d="M48.0687 139.353L47.7323 143.396L50.7869 140.779L48.0687 139.353ZM48.2229 137.498L52.2007 139.585L53.9091 138.119L55.9413 139.185L47.6933 145.878L45.7344 144.85L46.3317 134.146L48.4128 135.237L48.2229 137.498Z" fill="#5BBA51"></path><path d="M39.2267 139.019L41.7993 140.833L40.7107 142.323L33.7046 137.382L34.7932 135.893L37.3659 137.707L42.0507 131.301L43.9115 132.613L39.2267 139.019Z" fill="#5BBA51"></path><path d="M29.8854 131.703L31.2758 133L33.7788 130.538L32.3885 129.241C31.3457 128.268 30.3476 128.241 29.5676 129.007C28.778 129.784 28.8427 130.729 29.8854 131.703ZM34.1107 124.479L33.5324 127.773L33.6165 127.851L35.1014 129.237L37.102 127.269L38.8079 128.861L31.6271 135.923L28.4371 132.946C26.4677 131.109 26.2303 128.979 27.8409 127.396C28.9179 126.337 30.2658 126.081 31.6241 126.581L32.279 122.769L34.1107 124.479Z" fill="#5BBA51"></path><path d="M22.4731 117.527C20.8412 118.653 20.5555 120.53 21.6606 122C22.7656 123.471 24.7123 123.805 26.3442 122.679C27.9761 121.551 28.2617 119.675 27.1567 118.205C26.0524 116.734 24.105 116.4 22.4731 117.527ZM27.7938 124.607C25.2414 126.37 21.9202 125.769 19.9674 123.17C18.0223 120.582 18.4595 117.369 21.0234 115.597C23.5881 113.827 26.9063 114.448 28.8499 117.035C30.8034 119.635 30.3455 122.845 27.7938 124.607Z" fill="#5BBA51"></path><path d="M19.2971 109.996L21.2036 110.607L23.5579 109.49L24.5912 111.597L15.2799 116.014L14.2474 113.907L18.5965 111.844L12.2586 109.852L11.1035 107.498L17.1139 109.323L20.3056 102.859L21.5183 105.331L19.2971 109.996Z" fill="#5BBA51"></path><path d="M7.45801 96.4597L18.7983 97.7059L19.4876 99.8625L10.7556 106.77L10.0019 104.411L16.2506 99.5139L8.15256 98.6292L7.45801 96.4597Z" fill="#523D8B"></path><path d="M14.303 85.6893L16.2029 85.4383L17.3005 92.9768L7.0714 94.3264L6 86.9691L7.89923 86.7189L8.64487 91.8363L10.8661 91.5434L10.2079 87.0232L12.0488 86.78L12.7078 91.3002L15.0748 90.988L14.303 85.6893Z" fill="#523D8B"></path><path d="M15.3208 84.7273L13.5511 83.8958C14.1933 83.0442 14.652 81.7651 14.6712 80.5385C14.6934 79.1366 14.2354 78.5595 13.6073 78.5492C11.6941 78.5188 12.9141 84.4846 9.11655 84.424C7.37794 84.3959 5.9545 82.971 6.00111 80.0643C6.02109 78.7793 6.34883 77.4698 6.9629 76.5295L8.74811 77.2885C8.1925 78.2296 7.91358 79.2039 7.89952 80.1094C7.87659 81.5114 8.39447 82.0603 9.03664 82.0706C10.921 82.1002 9.71581 76.1352 13.4697 76.1951C15.1787 76.2225 16.6162 77.6621 16.5704 80.5836C16.5445 82.2046 16.0362 83.8329 15.3208 84.7273Z" fill="#523D8B"></path><path d="M8.45689 71.6073L7.97408 74.7725L6 74.5035L7.31453 65.8843L9.28861 66.1525L8.8058 69.3184L17.3005 70.4744L16.9516 72.7641L8.45689 71.6073Z" fill="#523D8B"></path><path d="M8.18701 63.9844L8.7763 61.6178L18.7584 64.2286L18.1684 66.5952L8.18701 63.9844Z" fill="#523D8B"></path><path d="M18.9376 54.8212C18.1307 54.5123 17.5067 54.9683 17.0575 56.0938L16.0468 58.626L18.4126 59.5322L19.424 57C19.8732 55.8746 19.7579 55.1351 18.9376 54.8212ZM12.1751 57.1436L14.4323 58.0083L15.2935 55.8505C15.7159 54.792 15.5627 54.0694 14.8108 53.7809C14.0582 53.4932 13.4595 53.9273 13.0363 54.9858L12.1751 57.1436ZM20.042 52.7261C21.6968 53.3599 22.1408 55.0135 21.1568 57.4787L19.221 62.3289L9.64502 58.6617L11.4745 54.0789C12.4109 51.7346 13.8908 50.9107 15.382 51.4818C16.3391 51.8483 16.885 52.6139 16.9906 53.5347C17.7499 52.6204 18.838 52.265 20.042 52.7261Z" fill="#523D8B"></path><path d="M19.3861 49.7936L14.3843 47.0062L15.6379 45.1079L20.5634 47.8523C22.2606 48.7976 23.4115 48.5089 24.1702 47.3609C24.9365 46.2004 24.6758 45.1412 22.9793 44.1952L18.0531 41.4508L19.2916 39.5754L24.2942 42.3628C26.9231 43.8273 27.4642 46.0206 25.9234 48.3534C24.3833 50.6855 22.0151 51.2582 19.3861 49.7936Z" fill="#523D8B"></path><path d="M21.6748 36.439L23.2118 34.5981L29.6157 40.0282L32.945 36.0395L34.4334 37.3011L29.5672 43.1307L21.6748 36.439Z" fill="#523D8B"></path><path d="M36.8445 29.9362L33.1324 28.1326L34.4573 31.9823L36.8445 29.9362ZM38.5491 30.7632L35.0547 33.759L35.7974 35.9123L34.0125 37.4421L30.7886 27.1843L32.509 25.7098L42.4536 30.2071L40.6254 31.7738L38.5491 30.7632Z" fill="#523D8B"></path><path d="M42.6319 20.4502L41.0309 21.4475L42.8577 24.433L44.4586 23.4356C45.6592 22.688 45.9211 21.7475 45.3518 20.8179C44.7754 19.8751 43.8324 19.7026 42.6319 20.4502ZM48.7269 26.2522L45.6303 24.8858L45.5336 24.9462L43.8237 26.0112L45.2833 28.3968L43.3187 29.6205L38.0786 21.0559L41.7531 18.7672C44.0207 17.3549 46.1657 17.6577 47.3409 19.5788C48.1266 20.8637 48.061 22.2061 47.2486 23.3701L50.8372 24.9382L48.7269 26.2522Z" fill="#523D8B"></path><path d="M58.8737 19.743L59.5863 21.398L52.4884 24.2877L48.6504 15.3752L55.5779 12.5553L56.2913 14.2103L51.4716 16.1722L52.3051 18.1069L56.5616 16.3743L57.252 17.9789L52.9962 19.7115L53.8843 21.7741L58.8737 19.743Z" fill="#523D8B"></path><path d="M60.2657 20.3432L60.5979 18.387C61.5711 18.7889 62.902 18.8971 64.0708 18.5891C65.406 18.2361 65.8348 17.6336 65.6822 17.0153C65.217 15.1313 59.8747 17.9198 58.9508 14.181C58.5285 12.4705 59.512 10.6947 62.2805 9.96377C63.5053 9.64075 64.8318 9.61296 65.8814 9.96377L65.6226 11.9154C64.5868 11.6224 63.591 11.6089 62.7283 11.8373C61.3931 12.1896 61.0064 12.8424 61.1626 13.4749C61.6206 15.3296 66.9665 12.5562 67.8795 16.2514C68.2952 17.9341 67.3009 19.7272 64.5185 20.4619C62.974 20.869 61.2986 20.8059 60.2657 20.3432Z" fill="#523D8B"></path><path d="M73.0737 13.9154L77.6692 13.6218L77.8126 15.4615L73.2171 15.755L73.0737 13.9154Z" fill="#523D8B"></path><path d="M106.874 104.928L82.4241 108.831C79.0538 109.368 75.9902 106.847 75.9902 103.536V58.0978C75.9902 54.7197 79.1719 52.1815 82.5908 52.8321L107.193 57.5142C112.149 58.4573 115.724 62.6696 115.724 67.5666V94.82C115.724 99.8352 111.979 104.113 106.874 104.928Z" fill="#5BBA51"></path><path d="M55.2316 105.225L77.14 108.803C81.6935 109.547 85.8323 106.061 85.8323 101.482V60.1509C85.8323 55.4805 81.5342 51.972 76.9138 52.8711L54.9159 57.1547C50.0053 58.1109 46.4629 62.3815 46.4629 67.3463V94.9769C46.4629 100.062 50.1741 104.399 55.2316 105.225Z" fill="#523D8B"></path><path d="M55.3423 104.524L77.2634 108.101C79.227 108.423 81.2227 107.873 82.7395 106.597C84.257 105.32 85.1267 103.456 85.1267 101.483V60.1508C85.1267 58.1374 84.2278 56.2496 82.6601 54.9708C81.0924 53.692 79.0509 53.1811 77.0589 53.5686L55.0482 57.8523C50.4826 58.7407 47.1696 62.7336 47.1696 67.3463V94.9768C47.1696 99.7361 50.6071 103.751 55.3423 104.524ZM78.3667 109.614C77.9218 109.614 77.4764 109.578 77.0305 109.506L55.1094 105.927C49.677 105.041 45.7344 100.435 45.7344 94.9768V67.3463C45.7344 62.0552 49.535 57.4749 54.7717 56.4559L76.783 52.1722C79.1964 51.7025 81.6718 52.3223 83.5714 53.8724C85.4717 55.4225 86.5619 57.7109 86.5619 60.1508V101.483C86.5619 103.875 85.5073 106.134 83.6681 107.681C82.1739 108.939 80.2954 109.614 78.3667 109.614Z" fill="#734A9B"></path><path d="M94.5533 78.2006C94.573 78.2703 94.6061 78.2766 94.6525 78.2195C97.8335 74.2089 101.097 70.4029 104.444 66.8017C104.539 66.6986 104.66 66.6514 104.808 66.6601C105.901 66.7206 106.999 66.793 108.102 66.8772C108.232 66.8868 108.367 66.9001 108.507 66.9171C109.398 67.0202 110.318 67.0872 111.267 67.1181C111.273 67.1181 111.278 67.1189 111.284 67.1203C111.32 67.1305 111.341 67.1682 111.33 67.2045C111.329 67.2094 111.327 67.2142 111.324 67.219C111.224 67.3976 111.06 67.5428 110.929 67.7046C107.479 71.9577 103.981 76.1726 100.433 80.3492C100.411 80.3748 100.402 80.4043 100.408 80.4377C100.438 80.6497 100.653 80.7695 100.777 80.9306C102.734 83.4914 104.552 85.8401 106.233 87.9766C107.776 89.9383 109.476 91.9238 111.334 93.933C111.36 93.962 111.354 93.9794 111.316 93.9852C110.152 94.1696 108.969 94.2633 107.795 94.4229C107.22 94.5004 106.646 94.563 106.073 94.6109C105.439 94.6618 104.835 94.7815 104.208 94.8461C104.174 94.849 104.141 94.836 104.119 94.8106C103.163 93.6845 102.234 92.4943 101.332 91.24C100.866 90.5889 100.372 89.9422 99.8629 89.3158C98.0646 87.1019 96.3046 84.8662 94.5829 82.6088C94.5202 82.5275 94.4615 82.4346 94.4067 82.3301C94.3986 82.3141 94.3823 82.3039 94.3638 82.3039C94.3423 82.3039 94.3231 82.3184 94.3171 82.3388C94.3092 82.3659 94.3053 82.3932 94.3053 82.4208C94.3048 87.2454 94.3154 91.6942 94.3371 95.7672C94.3371 95.8101 94.3038 95.8456 94.2609 95.8478C93.4718 95.9015 92.6642 96.0561 91.9033 96.1069C90.6695 96.1902 89.4677 96.3075 88.2976 96.459L88.2924 96.4597C88.271 96.4597 88.2532 96.4423 88.2532 96.4212C88.2636 90.6439 88.2643 84.6627 88.2554 78.4794C88.248 73.783 88.0948 69.1861 88.02 64.5203C88.0195 64.4777 88.0408 64.4586 88.0837 64.4629L94.3519 65.0879C94.4023 65.0927 94.4279 65.1201 94.4289 65.1699C94.5237 69.5004 94.5631 73.8043 94.5473 78.0816C94.5468 78.1464 94.5488 78.1861 94.5533 78.2006Z" fill="#FEFEFE"></path><path d="M75.6362 81.1819L75.622 83.5986C75.622 83.6462 75.6464 83.6699 75.6953 83.6699L79.9303 83.6481H79.9318C79.9692 83.6481 79.9998 83.6779 79.9998 83.715V83.7158L79.8854 89.1698C79.8854 89.2076 79.854 89.2374 79.8151 89.2374H79.8136C78.9237 89.2185 78.2147 89.1865 77.6868 89.1414C77.0052 89.0822 76.3227 89.0388 75.6392 89.0112H75.6377C75.6078 89.0112 75.5831 89.0352 75.5831 89.0636V89.0643L75.527 94.9919C75.527 95.0268 75.5091 95.0416 75.4732 95.0363L74.9287 94.9585L69.1861 94.3845C69.1644 94.3823 69.148 94.3648 69.148 94.3437L69.2033 89.0134V89.0126C69.2033 88.9792 69.1764 88.9523 69.142 88.9508C67.1562 88.8878 65.2532 88.817 63.433 88.7384C62.7674 88.7103 62.0864 88.6901 61.3899 88.678C58.4928 88.6285 55.5002 88.5936 52.4121 88.5732C52.3458 88.5723 52.3126 88.5395 52.3126 88.475C52.3156 86.73 52.3111 85.0354 52.2992 83.3913C52.2962 83.0785 52.2625 82.6529 52.4712 82.431C53.2041 81.6541 53.9344 80.8749 54.6623 80.0936C58.8512 75.6025 63.0232 71.0969 67.1782 66.5767C67.2858 66.4589 67.33 66.3272 67.5237 66.293C68.6993 66.2727 69.8716 66.2249 71.0407 66.1497C72.6067 66.0471 74.0762 65.9642 75.5943 65.8842H75.5958C75.6093 65.8842 75.6197 65.8944 75.6197 65.9075L75.6362 81.1819ZM68.8817 72.3727C67.9758 73.4392 67.3798 74.1313 67.0936 74.449C64.3735 77.4729 61.5402 80.5424 58.5937 83.6576C58.512 83.7434 58.5314 83.7858 58.6521 83.7849L69.2078 83.7492C69.2616 83.7492 69.305 83.707 69.305 83.6554C69.29 79.7953 69.2512 75.9345 69.2145 72.0955C69.2138 72.0802 69.2011 72.0679 69.1846 72.0679C69.1796 72.0679 69.1754 72.0688 69.1719 72.0708C69.0276 72.1384 68.9775 72.2599 68.8817 72.3727Z" fill="#FEFEFE"></path><defs><clipPath id="bgblur_0_129_108_clip_path" transform="translate(5.6 5.6)"><circle cx="81" cy="81" r="81"></circle></clipPath></defs></svg>